<svg xmlns="http://www.w3.org/2000/svg" width="27" height="27" viewBox="0 0 32 32" id="destination"><path fill="black" d="M13.9,21H10a1,1,0,0,0,0,2h3.9a5.23,5.23,0,0,1,4.72,3H3a1,1,0,0,1-1-1V19.28l2.22.56.83,2.48A1,1,0,1,0,7,21.68l-1-3A1,1,0,0,0,5.24,18l-4-1A1,1,0,0,0,0,18v7a3,3,0,0,0,3,3H4.59l-2.3,2.29A1,1,0,0,0,3,32H7.47c1.06,0,.92-.07,7.8-4H20a1,1,0,0,0,1-1.2A7.24,7.24,0,0,0,13.9,21ZM8,29.87c-.3.17-.33.13-2.55.13l2-2h3.82Z"></path><path fill="black" d="M26,25H24a1,1,0,0,1,0-2h2a2,2,0,0,0,0-4H15.5a4.5,4.5,0,0,1,0-9H22a1,1,0,0,1,0,2H15.5a2.5,2.5,0,0,0,0,5H26a4,4,0,0,1,0,8Z"></path><path fill="black" d="M26.31,11.73C25.59,11,22,7.51,22,5A5,5,0,0,1,32,5c0,2.51-3.59,6-4.31,6.73A1,1,0,0,1,26.31,11.73ZM27,2a3,3,0,0,0-3,3c0,1,1.58,3.11,3,4.59C28.42,8.11,30,6.05,30,5A3,3,0,0,0,27,2Z"></path><path fill="black" d="M27,6a1,1,0,1,1,1-1A1,1,0,0,1,27,6Z"></path></svg>


